walker_model_states
version=1
nRows=47
nColumns=15
inDegrees=yes

# SIMM Motion File Header:
name walker_model_states
datacolumns 15
datarows 47
otherdata 1
range 0.00000000 0.12310369
endheader
time	planarjoint_/Pelvis_rot/value	planarjoint_/Pelvis_rot/speed	planarjoint_/Pelvis_tx/value	planarjoint_/Pelvis_tx/speed	planarjoint_/Pelvis_ty/value	planarjoint_/Pelvis_ty/speed	LThighToPelvis/LHip_rz/value	LThighToPelvis/LHip_rz/speed	RThighToPelvis/RHip_rz/value	RThighToPelvis/RHip_rz/speed	LShankToLThigh/LKnee_rz/value	LShankToLThigh/LKnee_rz/speed	RShankToRThigh/RKnee_rz/value	RShankToRThigh/RKnee_rz/speed
      0.00000000	      0.00000000	      0.00000000	      0.00000000	      0.00000000	      1.00000000	      0.00000000	     30.00000025	      0.00000000	    -10.00000028	      0.00000000	    -30.00000025	      0.00000000	    -30.00000025	      0.00000000
      0.01000000	      0.00000000	      0.00000000	      0.00008515	      0.01702908	      0.99951712	     -0.09657665	     30.00000025	      0.00000000	    -10.00000028	      0.00000000	    -30.00000025	     -0.00000000	    -30.00000025	     -0.00000000
      0.06000000	      0.00000000	      0.00000000	      0.00306523	      0.10217446	      0.98261620	     -0.57945989	     30.00000025	      0.00000000	    -10.00000028	      0.00000000	    -30.00000025	     -0.00000000	    -30.00000025	     -0.00000000
      0.08500000	      0.00000000	      0.00000000	      0.00615175	      0.14474715	      0.96511169	     -0.82090151	     30.00000025	      0.00000000	    -10.00000028	      0.00000000	    -30.00000025	     -0.00000000	    -30.00000025	     -0.00000000
      0.09750000	      0.00000000	      0.00000000	      0.00809413	      0.16603349	      0.95409591	     -0.94162232	     30.00000025	      0.00000000	    -10.00000028	      0.00000000	    -30.00000025	     -0.00000000	    -30.00000025	     -0.00000000
      0.10375000	      0.00000000	      0.00000000	      0.00916510	      0.17667667	      0.94802215	     -1.00198273	     30.00000025	      0.00000000	    -10.00000028	      0.00000000	    -30.00000025	     -0.00000000	    -30.00000025	     -0.00000000
      0.10687500	      0.00000000	      0.00000000	      0.00972553	      0.18199825	      0.94484379	     -1.03216293	     30.00000025	      0.00000000	    -10.00000028	      0.00000000	    -30.00000025	     -0.00000000	    -30.00000025	     -0.00000000
      0.10843750	      0.00000000	      0.00000000	      0.01001198	      0.18465905	      0.94321925	     -1.04725303	     30.00000025	      0.00000000	    -10.00000028	      0.00000000	    -30.00000025	     -0.00000000	    -30.00000025	     -0.00000000
      0.11625000	      0.00000000	      0.00000000	      0.01150660	      0.19796301	      0.93474286	     -1.12270354	     30.00000025	      0.00000000	    -10.00000028	      0.00000000	    -30.00000025	     -0.00000000	    -30.00000025	     -0.00000000
      0.11664063	      0.00000000	      0.00000000	      0.01158406	      0.19862821	      0.93430356	     -1.12647606	     30.00000025	      0.00000000	    -10.00000028	      0.00000000	    -30.00000025	     -0.00000000	    -30.00000025	     -0.00000000
      0.11685803	      0.00000000	      0.00000000	      0.01162728	      0.19899843	      0.93405843	     -1.12857570	     30.00000025	      0.00000000	    -10.00000028	      0.00000000	    -30.00000025	     -0.00000000	    -30.00000025	     -0.00000000
      0.11711364	      0.00000000	      0.00000000	      0.01167820	      0.19943370	      0.93376965	     -1.13104424	     30.00000025	      0.00000000	    -10.00000028	      0.00000000	    -30.00000025	     -0.00000000	    -30.00000025	     -0.00000000
      0.11728978	      0.00000000	      0.00000000	      0.01171336	      0.19973366	      0.93357027	     -1.13274537	     30.00000025	      0.00000000	    -10.00000028	      0.00000000	    -30.00000025	     -0.00000000	    -30.00000025	     -0.00000000
      0.11744755	      0.00000000	      0.00000000	      0.01174489	      0.20000232	      0.93339144	     -1.13426904	     30.00000025	      0.00000000	    -10.00000028	      0.00000000	    -30.00000025	     -0.00000000	    -30.00000025	     -0.00000000
      0.11760455	      0.00000000	      0.00000000	      0.01177631	      0.20026969	      0.93321324	     -1.13578534	     30.00000025	      0.00000000	    -10.00000028	      0.00000000	    -30.00000025	     -0.00000000	    -30.00000025	     -0.00000000
      0.11775626	      0.00000000	      0.00000000	      0.01180671	      0.20052803	      0.93304082	     -1.13725045	     30.00000025	      0.00000000	    -10.00000028	      0.00000000	    -30.00000025	     -0.00000000	    -30.00000025	     -0.00000000
      0.11784770	      0.00000000	      0.00000000	      0.01182506	      0.20068109	      0.93293679	     -1.13813259	     30.00000050	      0.01299349	    -10.00000027	      0.00036320	    -30.00000137	     -0.05907864	    -30.00000026	     -0.00037615
      0.11793914	     -0.00000000	     -0.00000000	      0.01184342	      0.20081595	      0.93283267	     -1.13900790	     30.00000543	      0.11504368	    -10.00000013	      0.00321868	    -30.00002380	     -0.52290782	    -30.00000040	     -0.00332918
      0.11807596	     -0.00000000	     -0.00000000	      0.01187090	      0.20095992	      0.93267675	     -1.14029443	     30.00004625	      0.54455476	     -9.99999898	      0.01537009	    -30.00020896	     -2.46572698	    -30.00000158	     -0.01570231
      0.11821277	     -0.00000000	     -0.00000000	      0.01189840	      0.20101085	      0.93252066	     -1.14153766	     30.00017366	      1.39328266	     -9.99999535	      0.04006117	    -30.00078337	     -6.25632142	    -30.00000524	     -0.03986826
      0.11834959	     -0.00000000	     -0.00000000	      0.01192590	      0.20094337	      0.93236439	     -1.14271008	     30.00044887	      2.70826019	     -9.99998731	      0.08034265	    -30.00200997	    -11.98380529	    -30.00001306	     -0.07646364
      0.11848640	     -0.00000000	     -0.00000000	      0.01195338	      0.20072904	      0.93220798	     -1.14376535	     30.00093550	      4.47592686	     -9.99997252	      0.13927601	    -30.00413766	    -19.33840095	    -30.00002665	     -0.12365950
      0.11862322	     -0.00000000	     -0.00000000	      0.01198082	      0.20033360	      0.93205143	     -1.14463270	     30.00169068	      6.61594034	     -9.99994820	      0.22019903	    -30.00734123	    -27.55123558	    -30.00004717	     -0.17679961
      0.11872759	     -0.00000000	     -0.00000000	      0.01200170	      0.19988769	      0.93193194	     -1.14511718	     30.00247462	      8.42712150	     -9.99992125	      0.29880262	    -30.01054385	    -33.77142336	    -30.00006776	     -0.21755309
      0.11883197	     -0.00000000	     -0.00000000	      0.01202254	      0.19930331	      0.93181240	     -1.14541826	     30.00345373	     10.35269478	     -9.99988527	      0.39328931	    -30.01437666	    -39.59512880	    -30.00009252	     -0.25632601
      0.11893634	     -0.00000000	     -0.00000000	      0.01204330	      0.19857461	      0.93169284	     -1.14552624	     30.00463952	     12.38923619	     -9.99983857	      0.50428795	    -30.01879265	    -44.95377511	    -30.00012119	     -0.29272016
      0.11904071	     -0.00000000	     -0.00000000	      0.01206398	      0.19770070	      0.93157328	     -1.14544474	     30.00604451	     14.55777367	     -9.99977942	      0.63200880	    -30.02374849	    -49.96971346	    -30.00015356	     -0.32750618
      0.11914508	     -0.00000000	     -0.00000000	      0.01208457	      0.19668335	      0.93145374	     -1.14518357	     30.00768404	     16.88878761	     -9.99970606	      0.77642579	    -30.02921868	    -54.84454350	    -30.00018954	     -0.36193797
      0.11924946	     -0.00000000	     -0.00000000	      0.01210504	      0.19552513	      0.93133424	     -1.14475341	     30.00957663	     19.41102768	     -9.99961677	      0.93741171	    -30.03519905	    -59.77585222	    -30.00022915	     -0.39724203
      0.11935383	     -0.00000000	     -0.00000000	      0.01212538	      0.19422864	      0.93121479	     -1.14416331	     30.01174343	     22.14628575	     -9.99950981	      1.11480100	    -30.04170403	    -64.91828516	    -30.00027253	     -0.43437897
      0.11949315	     -0.00000000	     -0.00000000	      0.01215230	      0.19228676	      0.93105545	     -1.14313814	     30.01510305	     26.15202173	     -9.99933658	      1.37680901	    -30.05125395	    -72.28410091	    -30.00033671	     -0.48788175
      0.11963247	     -0.00000000	      0.00000000	      0.01217894	      0.19010856	      0.93089628	     -1.14185222	     30.01904972	     30.57472823	     -9.99912487	      1.66714266	    -30.06187690	    -80.33473571	    -30.00040871	     -0.54657925
      0.11982458	      0.00000000	      0.00000000	      0.01221515	      0.18672996	      0.93067711	     -1.13966977	     30.02556223	     37.35295576	     -9.99876262	      2.11254766	    -30.07846916	    -92.62953324	    -30.00052219	     -0.63649451
      0.12005845	      0.00000000	      0.00000000	      0.01225828	      0.18206207	      0.93041095	     -1.13641045	     30.03536053	     46.62079955	     -9.99819873	      2.72150212	    -30.10205753	   -109.42014995	    -30.00068516	     -0.75974924
      0.12038726	      0.00000000	      0.00000000	      0.01231695	      0.17457420	      0.93003817	     -1.13082839	     30.05306188	     61.35462167	     -9.99714810	      3.68900175	    -30.14233171	   -136.09882768	    -30.00096665	     -0.95672828
      0.12064258	      0.00000000	      0.00000000	      0.01236071	      0.16813155	      0.92975008	     -1.12581921	     30.07031677	     73.96061747	     -9.99610191	      4.51597196	    -30.17995859	   -158.92163506	    -30.00123230	     -1.12644718
      0.12089790	      0.00000000	      0.00000000	      0.01240276	      0.16126075	      0.92946333	     -1.12035433	     30.09089676	     87.36516563	     -9.99483769	      5.39460446	    -30.22360438	   -183.17443388	    -30.00154288	     -1.30818677
      0.12108966	      0.00000000	      0.00000000	      0.01243317	      0.15589140	      0.92924890	     -1.11603167	     30.10864908	     97.83123684	     -9.99373780	      6.07980572	    -30.26053829	   -202.11684987	    -30.00180737	     -1.45119074
      0.12128142	      0.00000000	      0.00000000	      0.01246254	      0.15039993	      0.92903531	     -1.11158419	     30.12843246	    108.53234836	     -9.99250498	      6.77983600	    -30.30114720	   -221.47218269	    -30.00209971	     -1.59839432
      0.12154684	      0.00000000	      0.00000000	      0.01250144	      0.14269330	      0.92874111	     -1.10532929	     30.15922975	    123.56435263	     -9.99057540	      7.76177717	    -30.36353029	   -248.66292628	    -30.00255155	     -1.80716255
      0.12174067	      0.00000000	      0.00000000	      0.01252855	      0.13705340	      0.92852730	     -1.10076035	     30.18424894	    134.58068020	     -9.98900119	      8.48051409	    -30.41366051	   -268.57219421	    -30.00291680	     -1.96166998
      0.12193451	      0.00000000	      0.00000000	      0.01255458	      0.13145672	      0.92831437	     -1.09625004	     30.21139902	    145.53817136	     -9.98728807	      9.19427106	    -30.46764197	   -288.38150811	    -30.00331208	     -2.11686662
      0.12212835	      0.00000000	      0.00000000	      0.01257952	      0.12594484	      0.92810231	     -1.09184287	     30.24066080	    156.35680906	     -9.98543749	      9.89802574	    -30.52543997	   -307.92646002	    -30.00373741	     -2.27159640
      0.12239274	      0.00000000	      0.00000000	      0.01261185	      0.11863078	      0.92781440	     -1.08607212	     30.28391597	    170.77122131	     -9.98269611	     10.83374155	    -30.61031318	   -333.96520626	    -30.00436568	     -2.48040766
      0.12262972	      0.00000000	      0.00000000	      0.01263921	      0.11233340	      0.92755760	     -1.08119723	     30.32587319	    183.24330267	     -9.98003232	     11.64167049	    -30.69214172	   -356.46784752	    -30.00497530	     -2.66365454
      0.12286671	      0.00000000	      0.00000000	      0.01266511	      0.10632877	      0.92730192	     -1.07665738	     30.37072746	    195.21062255	     -9.97718110	     12.41469979	    -30.77919661	   -378.06855366	    -30.00562780	     -2.84217349
      0.12310369	      0.00000000	      0.00000000	      0.01268963	      0.10064973	      0.92704727	     -1.07248469	     30.41835080	    206.60160482	     -9.97415124	     13.14880098	    -30.87124675	   -398.59335413	    -30.00632190	     -3.01457673
